<svg width="25" height="25" viewBox="0 0 25 25" fill="none" xmlns="http://www.w3.org/2000/svg">
<path d="M12.5 0C19.4039 0 25 5.59609 25 12.5C25 19.4039 19.4039 25 12.5 25C5.59609 25 0 19.4039 0 12.5C0 5.59609 5.59609 0 12.5 0ZM12.3664 6.25H7.24766V10.3078H5.46875V11.7617H7.24766V13.2875H5.46875V14.7406H7.24766V18.75H12.3664C15.4445 18.75 17.7867 17.1133 18.6875 14.7414H20.3125V13.2883H19.0437C19.075 13.0305 19.0906 12.7664 19.0906 12.4992V12.4633C19.0906 12.2258 19.0781 11.9914 19.0539 11.7617H20.3125V10.3086H18.718C17.8398 7.90156 15.4797 6.25 12.3664 6.25ZM17.1195 14.7414C16.3328 16.3625 14.6422 17.4461 12.3664 17.4461H8.67891V14.7414H17.1195ZM17.5602 11.7617C17.593 12.0016 17.6102 12.2477 17.6102 12.4992V12.5344C17.6102 12.7914 17.5922 13.0422 17.5578 13.2875H8.67812V11.7617H17.5609H17.5602ZM12.3672 7.55156C14.6531 7.55156 16.3492 8.66406 17.1312 10.3078H8.67812V7.55156H12.3656H12.3672Z" fill="#DEBB60"/>
</svg>
