<svg width="75" height="75" viewBox="0 0 40 40" fill="none" xmlns="http://www.w3.org/2000/svg">
<path d="M36.1849 39.7559C35.2711 39.7559 34.3571 39.4072 33.6598 38.71L19.8374 24.8875C18.4429 23.493 18.4429 21.232 19.8374 19.8375C21.2319 18.443 23.4929 18.443 24.8875 19.8375L38.71 33.66C40.1044 35.0545 40.1044 37.3155 38.71 38.71C38.0127 39.4072 37.0988 39.7559 36.1849 39.7559Z" fill="#FFBC80"/>
<path d="M25.722 20.6717C24.3274 19.2772 22.0664 19.2772 20.6719 20.6717C19.2773 22.0662 19.2773 24.3272 20.6719 25.7218L25.2574 30.3073C27.3251 28.9992 29.0348 27.2608 30.3045 25.2542L25.722 20.6717Z" fill="#E5AA6E"/>
<path d="M15.5457 30.9736C24.0662 30.9736 30.9733 24.0664 30.9733 15.546C30.9733 7.02557 24.0662 0.118408 15.5457 0.118408C7.02533 0.118408 0.118164 7.02557 0.118164 15.546C0.118164 24.0664 7.02533 30.9736 15.5457 30.9736Z" fill="#FF473E"/>
<path d="M29.8854 21.2379C29.3307 22.0107 28.7042 22.7296 28.0145 23.3848C27.2097 24.1486 26.3252 24.8237 25.3761 25.3985C24.3851 25.9963 23.2803 26.4941 22.0946 26.8688C21.9482 26.9215 21.7953 26.9552 21.6448 26.9987C21.4932 27.0386 21.3428 27.0855 21.1889 27.1207L20.7242 27.2233C20.6463 27.2397 20.569 27.2598 20.4903 27.2736L20.2534 27.3133L19.7771 27.3943L19.2938 27.4525L19.051 27.4825C18.9696 27.4908 18.8877 27.4944 18.8059 27.5008L18.3132 27.536C18.1482 27.5445 17.9819 27.5435 17.8156 27.5482L17.5655 27.5536L17.5028 27.555H17.5002L17.4804 27.5543L17.3401 27.5501L17.0588 27.5418L16.9178 27.5375L16.8472 27.5354C16.825 27.5344 16.8087 27.5322 16.7892 27.5305L16.3371 27.4922C15.6914 27.4227 15.0316 27.2992 14.3875 27.119C13.0949 26.7626 11.8417 26.1586 10.7147 25.3398C9.58839 24.5211 8.58769 23.4875 7.79785 22.2936C7.40096 21.6932 7.06074 21.0572 6.7816 20.3938C6.50113 19.724 6.28503 19.0291 6.13621 18.3184C5.98611 17.6013 5.90385 16.8716 5.8905 16.139L5.88714 16.0011L5.88535 15.9321L5.88441 15.8975L5.88433 15.8964L5.89277 15.5873C5.89457 15.3489 5.91527 15.2233 5.92582 15.059C5.92917 14.9836 5.94261 14.8935 5.9541 14.806L5.98769 14.5431C6.00175 14.4559 6.01925 14.3693 6.03449 14.2823C6.05191 14.1958 6.06167 14.1075 6.08472 14.0222C6.23599 13.3304 6.46715 12.6586 6.77355 12.0202C7.08746 11.3851 7.47082 10.7827 7.91972 10.2316C8.37355 9.68474 8.89105 9.19083 9.45613 8.76122C10.0247 8.33778 10.6402 7.98133 11.2904 7.69895C11.9396 7.41997 12.6213 7.22481 13.3144 7.1063C13.3577 7.09872 13.4008 7.08981 13.4443 7.08317L13.5752 7.06692L13.8368 7.03317C14.0118 7.01661 14.1873 7.00403 14.3626 6.99224L14.6264 6.98575L14.7583 6.98192C14.7517 6.98153 14.7827 6.98161 14.782 6.9813H14.7836L14.8631 6.98325L15.1811 6.99114L15.3968 7.00942C15.4338 7.01294 15.4649 7.01255 15.5069 7.01849L15.63 7.0345C15.7118 7.04653 15.7947 7.05138 15.8756 7.0681L16.1193 7.1113C16.2003 7.12622 16.2798 7.14802 16.3603 7.16536C16.6801 7.24208 16.9953 7.33731 17.2982 7.46239C17.6021 7.58442 17.8986 7.72466 18.1792 7.89185C18.4609 8.0563 18.7332 8.23731 18.9857 8.44231C20.0048 9.25138 20.775 10.3433 21.1857 11.5354C21.3967 12.1304 21.5091 12.7515 21.5494 13.3731L21.5559 13.6068L21.5596 13.7183L21.5589 13.7497L21.5573 13.8236L21.554 13.9714C21.5533 13.994 21.5534 14.025 21.552 14.0408L21.5477 14.0848L21.5334 14.2644C21.5051 14.5503 21.4493 14.8305 21.3743 15.1034C21.0764 16.1975 20.3912 17.1544 19.5203 17.803C18.6461 18.4534 17.6015 18.791 16.5725 18.8029L16.5243 18.8046L16.5236 18.8047L16.5082 18.8043L16.3782 18.8015L16.3132 18.8L16.2808 18.7993C16.2725 18.7989 16.2691 18.7981 16.263 18.7975L16.1975 18.7914L16.1307 18.7869L16.045 18.7759C15.9879 18.7704 15.9311 18.7621 15.8747 18.7512C15.6513 18.7136 15.4318 18.6555 15.219 18.5775C14.7968 18.4244 14.4127 18.1904 14.0832 17.907C13.7553 17.6219 13.475 17.2919 13.2692 16.9298C13.1649 16.7497 13.0782 16.5629 13.0028 16.3742C12.9285 16.1848 12.8743 15.9907 12.8325 15.796C12.81 15.6988 12.7971 15.6004 12.7818 15.5027C12.7732 15.4041 12.7589 15.3065 12.7557 15.208L12.7511 15.1344L12.7499 15.1161C12.7506 15.0748 12.7497 15.0965 12.7488 15.1261L12.7545 14.9166L12.7574 14.8108C12.7584 14.7768 12.7585 14.7328 12.7628 14.7279C12.7691 14.7 12.7739 14.6722 12.7772 14.644C12.7813 14.615 12.7809 14.5896 12.7846 14.5568L12.8129 14.435L12.8375 14.3129L12.8754 14.1953L12.9107 14.0771C12.9207 14.037 12.9426 14.0018 12.9571 13.9638C12.9909 13.8898 13.0141 13.8105 13.0585 13.7426L13.1159 13.6361L13.1435 13.5824L13.1778 13.5331C13.225 13.4686 13.2643 13.3986 13.3126 13.3358C13.3629 13.2749 13.4119 13.213 13.4596 13.1501C13.5152 13.0955 13.5695 13.0396 13.6225 12.9824C13.8475 12.7694 14.0999 12.6008 14.361 12.4729C14.4276 12.4448 14.4935 12.4153 14.5589 12.3845C14.6268 12.3625 14.6949 12.3434 14.7611 12.3183C14.8266 12.2895 14.896 12.2791 14.9635 12.2623L15.0646 12.2372L15.1149 12.2241L15.1661 12.2183C15.234 12.2102 15.3018 12.201 15.3693 12.1907L15.3946 12.1868L15.4071 12.1848C15.4269 12.1843 15.2744 12.1804 15.3482 12.1821L15.4238 12.1817L15.5736 12.1809L15.6478 12.1805C15.6699 12.1807 15.705 12.1795 15.7068 12.1817C15.7248 12.1845 15.7427 12.1864 15.7608 12.1873C15.7978 12.1901 15.828 12.182 15.8899 12.1971C16.3293 12.2561 16.7165 12.4434 17.0013 12.6797C17.0683 12.7426 17.1415 12.7974 17.1978 12.863L17.2883 12.9543L17.3643 13.0508C17.3886 13.0828 17.4169 13.1118 17.4379 13.144L17.4987 13.2393C17.5182 13.2707 17.5411 13.2998 17.5577 13.3307L17.6038 13.4224L17.6497 13.5091C17.6653 13.5372 17.6735 13.5665 17.6857 13.5939C17.7077 13.6492 17.7318 13.7006 17.7507 13.7496C17.7766 13.85 17.8102 13.9343 17.8239 14.0052C17.8504 14.1471 17.8692 14.2228 17.8692 14.2228L17.8807 14.2698C17.9127 14.3987 17.9815 14.5156 18.0787 14.6062C18.1759 14.6968 18.2973 14.7572 18.4282 14.78C18.5169 14.7956 18.6078 14.7935 18.6957 14.7739C18.7837 14.7543 18.8669 14.7176 18.9406 14.6659C19.0143 14.6141 19.0772 14.5484 19.1255 14.4723C19.1738 14.3963 19.2067 14.3115 19.2222 14.2228C19.2222 14.2228 19.2422 14.1085 19.2743 13.8767C19.2875 13.7609 19.2853 13.6168 19.2904 13.4406C19.2871 13.3536 19.2782 13.2596 19.2705 13.157C19.2653 13.1061 19.2643 13.0518 19.2546 12.998L19.2221 12.8313C19.1331 12.3727 18.9309 11.8009 18.5006 11.2235C18.281 10.9421 18.0159 10.6463 17.671 10.3989L17.5427 10.3017L17.4046 10.214C17.3104 10.1574 17.2171 10.0924 17.1149 10.0413C17.0107 9.98893 16.9056 9.93828 16.7997 9.88935C16.6909 9.84224 16.5764 9.80466 16.4608 9.76231C16.3517 9.71833 16.2106 9.68653 16.0728 9.6545L15.8624 9.60841C15.8218 9.59966 15.805 9.59747 15.7787 9.5927L15.7052 9.57989L15.5567 9.55505L15.4817 9.54302L15.3312 9.53599L14.9407 9.522C14.414 9.52864 13.8455 9.5863 13.2838 9.77724L13.1768 9.80895L13.0723 9.84888L12.8618 9.93161L12.6492 10.0178L12.4425 10.1221C12.1618 10.2579 11.8975 10.4358 11.6325 10.6245C11.1068 11.009 10.6312 11.511 10.247 12.1081C10.1433 12.253 10.0632 12.4136 9.97582 12.5727C9.93449 12.6533 9.8866 12.7317 9.85136 12.8161L9.74308 13.0702C9.70808 13.1558 9.67011 13.2411 9.6391 13.3292L9.55753 13.5984L9.47863 13.8715C9.45558 13.9722 9.43605 14.082 9.41652 14.1883C9.3972 14.2962 9.37928 14.4042 9.36277 14.5125C9.35253 14.5753 9.35105 14.6022 9.3473 14.6383L9.33675 14.7436L9.3155 14.9554L9.31019 15.0086C9.30949 14.9979 9.30457 15.189 9.30644 15.125L9.30581 15.1597L9.30371 15.2993C9.29675 15.6725 9.32839 16.0533 9.38957 16.4349C9.618 17.9652 10.4196 19.5078 11.7057 20.6406C12.3473 21.2061 13.1033 21.6763 13.9417 21.9937C14.3646 22.1546 14.8015 22.2761 15.2468 22.3566C15.3587 22.3789 15.4718 22.3954 15.5853 22.4097L15.7558 22.4321L15.9475 22.4488L16.1409 22.4631L16.1879 22.4661L16.2203 22.4672L16.2852 22.4695L16.4152 22.474L16.4477 22.475C16.4751 22.4759 16.5026 22.4763 16.53 22.4762L16.6124 22.475C17.4907 22.4715 18.3914 22.3371 19.2617 22.0555C19.6978 21.9179 20.125 21.7407 20.5385 21.53C20.9517 21.3193 21.354 21.0782 21.7336 20.7998C22.4918 20.2436 23.1793 19.5643 23.737 18.7723C24.0192 18.3744 24.2685 17.9541 24.4826 17.5158C24.6982 17.0743 24.8739 16.6099 25.0132 16.1324C25.1513 15.6546 25.2528 15.1625 25.3085 14.6632C25.3232 14.5325 25.3332 14.3879 25.3438 14.2504L25.3511 14.146C25.3533 14.1123 25.3532 14.0943 25.3543 14.0676L25.3594 13.92L25.362 13.8461L25.3632 13.8091C25.3639 13.7744 25.3636 13.8344 25.365 13.7221L25.3623 13.5411L25.355 13.1783C25.307 12.2102 25.1378 11.2317 24.8188 10.2911C24.1921 8.40778 23.0079 6.67294 21.4053 5.39927C21.0082 5.077 20.5821 4.78841 20.1382 4.52747C19.6957 4.26388 19.2288 4.03825 18.7484 3.84349C18.2689 3.6456 17.7707 3.49028 17.2644 3.36731C17.1374 3.33841 17.0109 3.30591 16.8829 3.28114L16.4978 3.21106C16.3695 3.18622 16.2394 3.17419 16.1101 3.15583L15.9157 3.13099C15.8521 3.12239 15.7754 3.11825 15.7059 3.112L15.28 3.0813L14.962 3.07208L14.8825 3.06974L14.8427 3.06856C14.7244 3.06747 14.7828 3.06872 14.7443 3.06872L14.5556 3.07247L14.1779 3.0813C13.9263 3.09575 13.6741 3.11325 13.4225 3.13708L13.0456 3.18341L12.8571 3.20724C12.7944 3.21653 12.7321 3.22825 12.6696 3.2388C11.669 3.40474 10.6817 3.68513 9.74222 4.08458C8.80169 4.48724 7.91137 4.9983 7.08933 5.60739C6.2701 6.22303 5.52465 6.93116 4.86777 7.7177C4.21785 8.50927 3.65457 9.37481 3.20832 10.2984C2.76661 11.2239 2.43523 12.1982 2.22097 13.2011C2.19011 13.3252 2.17316 13.452 2.14902 13.5774C2.12714 13.7032 2.10355 13.8287 2.08402 13.9547L2.03582 14.3342C2.02011 14.4607 2.00316 14.584 1.99449 14.7254C1.97457 14.9924 1.95027 15.301 1.95082 15.4875L1.94324 15.8075C1.9425 15.8392 1.94224 15.8708 1.94246 15.9024L1.94355 15.9484L1.94582 16.0404L1.9505 16.2244C1.97223 17.2045 2.0862 18.1803 2.29089 19.139C2.49428 20.0913 2.78773 21.0222 3.1673 21.919C3.54386 22.8056 4.00205 23.6552 4.53597 24.4569C5.0628 25.2479 5.66076 25.9891 6.32238 26.6714C6.97667 27.3408 7.69001 27.9499 8.45371 28.4912C9.96691 29.5651 11.6472 30.35 13.3731 30.8071C13.417 30.8188 13.4609 30.8295 13.5049 30.8408C15.7076 31.1364 18.0089 30.959 20.2657 30.2338C24.8319 28.7665 28.2418 25.3719 29.8854 21.2379V21.2379Z" fill="#FFA9BA"/>
</svg>
