<svg width="30" height="30" viewBox="0 0 30 30" fill="none" xmlns="http://www.w3.org/2000/svg">
<path d="M15 0C23.2847 0 30 6.71531 30 15C30 23.2847 23.2847 30 15 30C6.71531 30 0 23.2847 0 15C0 6.71531 6.71531 0 15 0ZM18.1425 5.2125C17.9137 5.1 17.685 5.2125 17.6288 5.44031C17.5716 5.4975 17.5716 5.55469 17.5716 5.66813V6.465L17.5809 6.5625C17.6299 6.75537 17.7484 6.92333 17.9137 7.03406C22.3706 8.62781 24.6562 13.5778 22.9987 17.9588C22.1419 20.3494 20.2566 22.1691 17.9137 23.0231C17.685 23.1366 17.5716 23.3072 17.5716 23.5922V24.3891L17.5762 24.4716C17.5852 24.5616 17.6228 24.6464 17.6836 24.7134C17.7443 24.7804 17.825 24.8261 17.9137 24.8438C17.9709 24.8438 18.0853 24.8438 18.1425 24.7875C19.4283 24.3859 20.6221 23.734 21.6549 22.8692C22.6878 22.0044 23.5394 20.9439 24.1606 19.7486C24.7819 18.5533 25.1607 17.247 25.275 15.9048C25.3893 14.5625 25.237 13.2109 24.8269 11.9278C23.7994 8.68406 21.285 6.23719 18.1425 5.21344V5.2125ZM12.0863 5.15625C12.0291 5.15625 11.9147 5.15625 11.8575 5.2125C10.5717 5.61405 9.37794 6.266 8.34508 7.13079C7.31223 7.99558 6.46064 9.05614 5.83935 10.2514C5.21807 11.4467 4.83935 12.753 4.72501 14.0952C4.61067 15.4375 4.76296 16.7891 5.17313 18.0722C6.20063 21.2597 8.65781 23.7066 11.8575 24.7303C12.0862 24.8437 12.315 24.7303 12.3713 24.5025C12.4284 24.4462 12.4284 24.3881 12.4284 24.2747V23.4778L12.4191 23.4028C12.3797 23.2444 12.2325 23.0634 12.0863 22.9659C7.62938 21.3722 5.34375 16.4222 7.00125 12.0412C7.85812 9.65062 9.74344 7.83094 12.0863 6.97687C12.315 6.86344 12.4284 6.69281 12.4284 6.40781V5.61094L12.4237 5.52844C12.4148 5.43841 12.3772 5.35364 12.3164 5.28662C12.2557 5.21961 12.175 5.1739 12.0863 5.15625V5.15625ZM15.4003 8.115H14.5425L14.46 8.1225C14.2725 8.16 14.1356 8.32125 14.085 8.57063V9.87938L13.8909 9.90937C12.2897 10.1944 11.2866 11.2997 11.2866 12.6675C11.2866 14.5444 12.4284 15.2841 14.8284 15.5691C16.4288 15.8531 16.9425 16.1953 16.9425 17.1056C16.9425 18.015 16.1428 18.6413 15.0572 18.6413C13.5713 18.6413 13.0575 18.0159 12.8859 17.1619C12.8297 16.935 12.6572 16.8206 12.4856 16.8206H11.5144L11.4403 16.8272C11.3479 16.8421 11.264 16.8901 11.2042 16.9621C11.1443 17.0342 11.1127 17.1254 11.115 17.2191V17.2753L11.1459 17.4441C11.4178 18.7791 12.3328 19.7344 14.1431 20.0072V21.3731L14.1506 21.4556C14.1881 21.6412 14.3503 21.7781 14.6006 21.8278H15.4575L15.54 21.8203C15.7275 21.7828 15.8644 21.6216 15.915 21.3731V20.0063L16.1091 19.9687C17.715 19.6294 18.7716 18.4678 18.7716 16.9903C18.7716 14.9991 17.5716 14.3166 15.1716 14.0316C13.4569 13.8038 13.1147 13.3491 13.1147 12.5522C13.1147 11.7553 13.6866 11.2434 14.8284 11.2434C15.8569 11.2434 16.4287 11.5847 16.7137 12.4387C16.7434 12.5213 16.7977 12.5928 16.8693 12.6436C16.9409 12.6944 17.0263 12.722 17.1141 12.7228H18.0281L18.1022 12.7172C18.195 12.7024 18.2792 12.6545 18.3392 12.5822C18.3993 12.5099 18.431 12.4183 18.4284 12.3244V12.2681L18.3938 12.1059C18.253 11.5232 17.9321 10.9997 17.4766 10.6099C17.0211 10.2201 16.4544 9.98379 15.8569 9.93469V8.57063L15.8494 8.48812C15.8119 8.30156 15.6497 8.16469 15.3994 8.115H15.4003Z" fill="#16267D"/>
</svg>
