<svg width="25" height="25" viewBox="0 0 25 25" fill="none" xmlns="http://www.w3.org/2000/svg">
<path d="M12.5 0C19.4039 0 25 5.59609 25 12.5C25 19.4039 19.4039 25 12.5 25C5.59609 25 0 19.4039 0 12.5C0 5.59609 5.59609 0 12.5 0ZM15.1187 4.34375C14.9281 4.25 14.7375 4.34375 14.6906 4.53359C14.643 4.58125 14.643 4.62891 14.643 4.72344V5.3875L14.6508 5.46875C14.6916 5.62948 14.7904 5.76944 14.9281 5.86172C18.6422 7.18984 20.5469 11.3148 19.1656 14.9656C18.4516 16.9578 16.8805 18.4742 14.9281 19.1859C14.7375 19.2805 14.643 19.4227 14.643 19.6602V20.3242L14.6469 20.393C14.6543 20.468 14.6857 20.5386 14.7363 20.5945C14.7869 20.6503 14.8542 20.6884 14.9281 20.7031C14.9758 20.7031 15.0711 20.7031 15.1187 20.6563C16.1903 20.3216 17.1851 19.7783 18.0458 19.0577C18.9065 18.337 19.6161 17.4532 20.1339 16.4572C20.6516 15.4611 20.9672 14.3725 21.0625 13.254C21.1578 12.1354 21.0309 11.0091 20.6891 9.93984C19.8328 7.23672 17.7375 5.19766 15.1187 4.34453V4.34375ZM10.0719 4.29688C10.0242 4.29688 9.92891 4.29687 9.88125 4.34375C8.80971 4.67838 7.81495 5.22166 6.95424 5.94232C6.09353 6.66298 5.38387 7.54678 4.86613 8.54283C4.34839 9.53888 4.03279 10.6275 3.93751 11.746C3.84222 12.8646 3.96914 13.9909 4.31094 15.0602C5.16719 17.7164 7.21484 19.7555 9.88125 20.6086C10.0719 20.7031 10.2625 20.6086 10.3094 20.4187C10.357 20.3719 10.357 20.3234 10.357 20.2289V19.5648L10.3492 19.5023C10.3164 19.3703 10.1938 19.2195 10.0719 19.1383C6.35781 17.8102 4.45312 13.6852 5.83437 10.0344C6.54844 8.04219 8.11953 6.52578 10.0719 5.81406C10.2625 5.71953 10.357 5.57734 10.357 5.33984V4.67578L10.3531 4.60703C10.3457 4.53201 10.3143 4.46137 10.2637 4.40552C10.2131 4.34967 10.1458 4.31159 10.0719 4.29688V4.29688ZM12.8336 6.7625H12.1188L12.05 6.76875C11.8937 6.8 11.7797 6.93438 11.7375 7.14219V8.23281L11.5758 8.25781C10.2414 8.49531 9.40547 9.41641 9.40547 10.5563C9.40547 12.1203 10.357 12.7367 12.357 12.9742C13.6906 13.2109 14.1188 13.4961 14.1188 14.2547C14.1188 15.0125 13.4523 15.5344 12.5477 15.5344C11.3094 15.5344 10.8812 15.0133 10.7383 14.3016C10.6914 14.1125 10.5477 14.0172 10.4047 14.0172H9.59531L9.53359 14.0227C9.45656 14.0351 9.38664 14.075 9.3368 14.1351C9.28695 14.1951 9.26056 14.2712 9.2625 14.3492V14.3961L9.28828 14.5367C9.51484 15.6492 10.2773 16.4453 11.7859 16.6727V17.8109L11.7922 17.8797C11.8234 18.0344 11.9586 18.1484 12.1672 18.1898H12.8813L12.95 18.1836C13.1063 18.1523 13.2203 18.018 13.2625 17.8109V16.6719L13.4242 16.6406C14.7625 16.3578 15.643 15.3898 15.643 14.1586C15.643 12.4992 14.643 11.9305 12.643 11.693C11.2141 11.5031 10.9289 11.1242 10.9289 10.4602C10.9289 9.79609 11.4055 9.36953 12.357 9.36953C13.2141 9.36953 13.6906 9.65391 13.9281 10.3656C13.9529 10.4344 13.9981 10.494 14.0578 10.5364C14.1174 10.5787 14.1886 10.6017 14.2617 10.6023H15.0234L15.0852 10.5977C15.1625 10.5854 15.2327 10.5454 15.2827 10.4852C15.3327 10.4249 15.3591 10.3486 15.357 10.2703V10.2234L15.3281 10.0883C15.2108 9.60267 14.9434 9.16641 14.5638 8.84156C14.1843 8.51672 13.712 8.31983 13.2141 8.27891V7.14219L13.2078 7.07344C13.1766 6.91797 13.0414 6.80391 12.8328 6.7625H12.8336Z" fill="#16267D"/>
</svg>
