<svg width="25" height="25" viewBox="0 0 25 25" fill="none" xmlns="http://www.w3.org/2000/svg">
<path fill-rule="evenodd" clip-rule="evenodd" d="M12.5 25C5.59609 25 0 19.4039 0 12.5C0 5.59609 5.59609 0 12.5 0C19.4039 0 25 5.59609 25 12.5C25 19.4039 19.4039 25 12.5 25ZM14.0016 10.7758V8.92734H18.2312V6.10859H6.71484V8.92734H10.9445V10.775C7.50703 10.9328 4.92188 11.6141 4.92188 12.4297C4.92188 13.2453 7.50703 13.9258 10.9445 14.0844V20.0078H14.0016V14.0828C17.4336 13.925 20.0125 13.2445 20.0125 12.4297C20.0125 11.6148 17.4336 10.9344 14.0016 10.7758ZM14.0016 13.5805V13.5789C13.9156 13.5852 13.4727 13.6117 12.4844 13.6117C11.6953 13.6117 11.1398 13.5883 10.9445 13.5789V13.5813C7.90703 13.4477 5.63984 12.9188 5.63984 12.2859C5.63984 11.6539 7.90703 11.125 10.9445 10.9891V13.0547C11.143 13.0687 11.7117 13.1023 12.4977 13.1023C13.4406 13.1023 13.9133 13.0633 14.0016 13.0555V10.9906C17.0328 11.1258 19.2945 11.6547 19.2945 12.2859C19.2945 12.9188 17.0328 13.4461 14.0016 13.5805Z" fill="#285513"/>
</svg>
